<svg width="689" height="411" viewBox="0 0 689 411" fill="none" xmlns="http://www.w3.org/2000/svg">
<g clip-path="url(#clip0_1105_5092)">
<path d="M215.741 7.74018C174.559 9.84018 134.853 14.3102 99.636 21.3302C58.1226 29.6002 15.7154 42.4802 28.2377 59.3302C51.3644 90.4402 162.308 91.0102 140.155 111.92C115.061 135.61 131.891 163.41 244.481 171.13C458.325 185.81 716.825 99.9202 644.221 52.7202C599.023 23.3402 434.395 -3.42983 215.741 7.73017V7.74018Z" fill="#407BFF"/>
<path opacity="0.9" d="M215.741 7.74018C174.559 9.84018 134.853 14.3102 99.636 21.3302C58.1226 29.6002 15.7154 42.4802 28.2377 59.3302C51.3644 90.4402 162.308 91.0102 140.155 111.92C115.061 135.61 131.891 163.41 244.481 171.13C458.325 185.81 716.825 99.9202 644.221 52.7202C599.023 23.3402 434.395 -3.42983 215.741 7.73017V7.74018Z" fill="white"/>
<path d="M682.934 404.39C682.934 407.78 530.035 410.53 341.427 410.53C152.819 410.53 -0.0800781 407.78 -0.0800781 404.39C-0.0800781 401 152.819 398.25 341.427 398.25C530.035 398.25 682.934 401 682.934 404.39Z" fill="#F5F5F5"/>
<path d="M360.566 27.6201H105.209C101.089 27.6201 97.748 30.9466 97.748 35.0501V395.3C97.748 399.404 101.089 402.73 105.209 402.73H360.566C364.687 402.73 368.027 399.404 368.027 395.3V35.0501C368.027 30.9466 364.687 27.6201 360.566 27.6201Z" fill="#407BFF"/>
<path opacity="0.3" d="M358.217 65.0303H107.569V388.7H358.217V65.0303Z" fill="black"/>
<path d="M358.668 41.4004H108.021V378.82H358.668V41.4004Z" fill="white"/>
<path d="M329.837 73.4702H136.851V83.8502H329.837V73.4702Z" fill="#E0E0E0"/>
<path d="M329.375 348.45H136.389V358.83H329.375V348.45Z" fill="#E0E0E0"/>
<path d="M284.297 204.17H144.332V205.17H284.297V204.17Z" fill="#263238"/>
<path d="M284.297 218.811H144.332V219.811H284.297V218.811Z" fill="#263238"/>
<path d="M328.652 225.55H302.182V199.19H328.652V225.55ZM303.186 224.55H327.648V200.19H303.186V224.55Z" fill="#263238"/>
<path d="M318.69 222.44L304.742 212.1L308.367 207.26L317.716 214.19L330.56 198.93L335.209 202.81L318.69 222.44Z" fill="#407BFF"/>
<path d="M284.297 157.84H144.332V158.84H284.297V157.84Z" fill="#263238"/>
<path d="M284.297 172.48H144.332V173.48H284.297V172.48Z" fill="#263238"/>
<path d="M328.652 179.22H302.182V152.86H328.652V179.22ZM303.186 178.22H327.648V153.86H303.186V178.22Z" fill="#263238"/>
<path d="M318.69 176.111L304.742 165.771L308.367 160.931L317.716 167.861L330.56 152.601L335.209 156.481L318.69 176.111Z" fill="#407BFF"/>
<path d="M284.297 111.51H144.332V112.51H284.297V111.51Z" fill="#263238"/>
<path d="M284.297 126.15H144.332V127.15H284.297V126.15Z" fill="#263238"/>
<path d="M328.652 132.89H302.182V106.53H328.652V132.89ZM303.186 131.89H327.648V107.53H303.186V131.89Z" fill="#263238"/>
<path d="M318.69 129.781L304.742 119.441L308.367 114.601L317.716 121.531L330.56 106.271L335.209 110.15L318.69 129.781Z" fill="#407BFF"/>
<path d="M284.297 249.71H144.332V250.71H284.297V249.71Z" fill="#263238"/>
<path d="M284.297 264.351H144.332V265.351H284.297V264.351Z" fill="#263238"/>
<path d="M328.652 271.09H302.182V244.73H328.652V271.09ZM303.186 270.09H327.648V245.73H303.186V270.09Z" fill="#263238"/>
<path d="M284.297 295.24H144.332V296.24H284.297V295.24Z" fill="#263238"/>
<path d="M284.297 309.88H144.332V310.88H284.297V309.88Z" fill="#263238"/>
<path d="M328.652 316.62H302.182V290.26H328.652V316.62ZM303.186 315.62H327.648V291.26H303.186V315.62Z" fill="#263238"/>
<path d="M275.752 21.1304H190.014V53.3304H275.752V21.1304Z" fill="#263238"/>
<path d="M260.037 24.3803H209.897L204.304 -0.139648H266.895L260.037 24.3803Z" fill="#263238"/>
<path opacity="0.3" d="M261.784 -0.139648C261.724 0.0103516 255.106 20.8503 255.267 20.8503H260.96L266.985 -0.139648H261.784Z" fill="black"/>
<path opacity="0.3" d="M270.219 21.1304C270.219 21.1304 269.807 53.3304 270.219 53.3304H275.752V21.1304H270.219Z" fill="black"/>
<path d="M608.583 77.3701H582.102C575.314 77.3701 569.811 82.8501 569.811 89.6101V104.39C569.811 111.15 575.314 116.63 582.102 116.63H588.127L589.091 123.46L596.402 116.63H608.593C615.381 116.63 620.884 111.15 620.884 104.39V89.6101C620.884 82.8501 615.381 77.3701 608.593 77.3701H608.583Z" fill="#407BFF"/>
<path d="M603.1 97.0499C603.1 98.7899 604.515 100.2 606.263 100.2C608.01 100.2 609.426 98.7899 609.426 97.0499C609.426 95.3099 608.01 93.8999 606.263 93.8999C604.515 93.8999 603.1 95.3099 603.1 97.0499Z" fill="white"/>
<path d="M592.314 97.0499C592.314 98.7899 593.73 100.2 595.478 100.2C597.225 100.2 598.641 98.7899 598.641 97.0499C598.641 95.3099 597.225 93.8999 595.478 93.8999C593.73 93.8999 592.314 95.3099 592.314 97.0499Z" fill="white"/>
<path d="M581.248 97.0499C581.248 98.7899 582.664 100.2 584.411 100.2C586.159 100.2 587.574 98.7899 587.574 97.0499C587.574 95.3099 586.159 93.8999 584.411 93.8999C582.664 93.8999 581.248 95.3099 581.248 97.0499Z" fill="white"/>
<path d="M609.265 75.0303H592.465C591.983 75.0303 591.983 75.7803 592.465 75.7803H609.265C609.747 75.7803 609.747 75.0303 609.265 75.0303Z" fill="#407BFF"/>
<path d="M590.367 75.0303H588.961C588.76 75.0303 588.579 75.2003 588.579 75.4103C588.579 75.6203 588.74 75.7903 588.961 75.7903H590.367C590.567 75.7903 590.748 75.6203 590.748 75.4103C590.748 75.2003 590.588 75.0303 590.367 75.0303Z" fill="#407BFF"/>
<path d="M30.6584 78.52H56.2051C62.7525 78.52 68.0647 83.81 68.0647 90.33V104.59C68.0647 111.11 62.7525 116.4 56.2051 116.4H50.3908L49.467 122.99L42.4175 116.4H30.6584C24.111 116.4 18.7988 111.11 18.7988 104.59V90.33C18.7988 83.81 24.111 78.52 30.6584 78.52Z" fill="#407BFF"/>
<path d="M35.9502 97.5C35.9502 99.18 34.5845 100.54 32.8975 100.54C31.2104 100.54 29.8447 99.18 29.8447 97.5C29.8447 95.82 31.2104 94.46 32.8975 94.46C34.5845 94.46 35.9502 95.82 35.9502 97.5Z" fill="white"/>
<path d="M46.3536 97.5C46.3536 99.18 44.9879 100.54 43.3008 100.54C41.6138 100.54 40.248 99.18 40.248 97.5C40.248 95.82 41.6138 94.46 43.3008 94.46C44.9879 94.46 46.3536 95.82 46.3536 97.5Z" fill="white"/>
<path d="M57.0284 97.5C57.0284 99.18 55.6627 100.54 53.9756 100.54C52.2886 100.54 50.9229 99.18 50.9229 97.5C50.9229 95.82 52.2886 94.46 53.9756 94.46C55.6627 94.46 57.0284 95.82 57.0284 97.5Z" fill="white"/>
<path d="M30.006 76.9897H46.2138C46.6958 76.9897 46.6958 76.2397 46.2138 76.2397H30.006C29.524 76.2397 29.524 76.9897 30.006 76.9897Z" fill="#407BFF"/>
<path d="M48.2419 76.99H49.5976C49.7984 76.99 49.9792 76.82 49.9792 76.61C49.9792 76.4 49.8185 76.23 49.5976 76.23H48.2419C48.0411 76.23 47.8604 76.4 47.8604 76.61C47.8604 76.82 48.021 76.99 48.2419 76.99Z" fill="#407BFF"/>
<path d="M438.829 67.8284C451.218 58.6991 453.83 41.2967 444.663 28.9591C435.495 16.6215 418.02 14.0207 405.63 23.1501C393.241 32.2794 390.629 49.6818 399.797 62.0194C408.964 74.3569 426.44 76.9578 438.829 67.8284Z" fill="#407BFF"/>
<path opacity="0.3" d="M438.829 67.8284C451.218 58.6991 453.83 41.2967 444.663 28.9591C435.495 16.6215 418.02 14.0207 405.63 23.1501C393.241 32.2794 390.629 49.6818 399.797 62.0194C408.964 74.3569 426.44 76.9578 438.829 67.8284Z" fill="black"/>
<path d="M440.199 63.9205C429.143 74.6105 411.469 74.3505 400.734 63.3405C389.999 52.3305 390.26 34.7305 401.317 24.0405C412.373 13.3505 430.047 13.6105 440.781 24.6205C451.516 35.6305 451.255 53.2305 440.199 63.9205Z" fill="#407BFF"/>
<path d="M439.33 57.86C447.012 47.6569 444.933 33.1844 434.687 25.5348C424.441 17.8853 409.908 19.9553 402.226 30.1584C394.545 40.3615 396.623 54.834 406.869 62.4836C417.115 70.1332 431.648 68.0632 439.33 57.86Z" fill="white"/>
<path d="M409.632 60.3704L412.715 55.8304C412.805 55.8904 412.896 55.9504 412.986 56.0104L410.014 60.6304C409.883 60.5504 409.753 60.4604 409.632 60.3804V60.3704ZM403.486 53.7404C403.406 53.6104 403.336 53.4704 403.265 53.3404L408.116 50.7604C408.166 50.8604 408.216 50.9504 408.276 51.0404L403.486 53.7404ZM418.549 63.6404L419.152 58.1904L419.493 58.2204L418.991 63.6804C418.84 63.6704 418.7 63.6504 418.549 63.6404ZM400.906 44.6304C400.906 44.4804 400.906 44.3304 400.896 44.1804L406.399 44.1304V44.4604L400.906 44.6404V44.6304ZM427.969 62.4104L425.96 57.3004L426.272 57.1804L428.461 62.2104L428.33 62.2604C428.24 62.3004 428.099 62.3504 427.959 62.4104H427.969ZM402.884 35.3804C402.954 35.2404 403.014 35.1104 403.085 34.9704L407.985 37.4604C407.935 37.5604 407.885 37.6504 407.845 37.7504L402.884 35.3804ZM431.634 53.3304C431.704 53.2504 431.764 53.1704 431.835 53.0904L436.083 56.5704C435.982 56.6904 435.882 56.8104 435.771 56.9304L431.624 53.3204L431.634 53.3304ZM412.223 32.5004L408.959 28.0904L409.321 27.8304L412.514 32.3004L412.233 32.5004H412.223ZM434.747 47.2504L434.817 46.9204L440.2 48.0704C440.17 48.2204 440.139 48.3604 440.099 48.5104L434.747 47.2504ZM418.569 29.8604L417.716 24.4404C417.866 24.4204 418.007 24.4004 418.158 24.3804L418.911 29.8104L418.569 29.8604ZM434.677 40.4104C434.647 40.3104 434.626 40.2004 434.596 40.1004L439.888 38.5904C439.929 38.7404 439.969 38.8904 440.009 39.0404L434.677 40.4104ZM425.418 30.4604L427.195 25.2704C427.346 25.3204 427.497 25.3704 427.637 25.4304L425.709 30.5704C425.609 30.5304 425.508 30.5004 425.408 30.4604H425.418ZM431.423 34.3904L431.202 34.1504L435.199 30.3804C435.299 30.4904 435.41 30.6004 435.51 30.7104L431.423 34.3904Z" fill="black"/>
<path d="M420.457 45.38C420.457 45.38 420.417 45.38 420.387 45.38C420.236 45.36 420.095 45.27 420.025 45.14L414.492 35.66C414.351 35.42 414.432 35.12 414.673 34.98C414.914 34.84 415.215 34.92 415.356 35.16L420.567 44.09L429.063 35.86C429.264 35.67 429.575 35.67 429.776 35.86C429.977 36.05 429.967 36.37 429.776 36.57L420.818 45.24C420.728 45.33 420.598 45.38 420.467 45.38H420.457Z" fill="black"/>
<path d="M422.074 45.3101C421.441 46.0301 420.346 46.1001 419.633 45.4701C418.91 44.8401 418.84 43.7501 419.473 43.0401C420.105 42.3201 421.2 42.2501 421.913 42.8801C422.636 43.5101 422.706 44.6001 422.074 45.3101Z" fill="black"/>
<path opacity="0.3" d="M405.283 29.1205C414.471 20.2405 429.153 20.4605 438.07 29.6105C440.259 31.8605 441.896 34.4405 442.981 37.1805C441.946 33.7405 440.109 30.5005 437.427 27.7405C428.51 18.5905 413.829 18.3705 404.64 27.2605C397.711 33.9605 395.894 43.9205 399.238 52.3405C396.838 44.3505 398.856 35.3405 405.283 29.1305V29.1205Z" fill="black"/>
<path d="M34.9366 391.65C34.9366 391.23 30.5081 348.8 40.289 312.71L41.5342 313.03C31.8336 348.89 36.1818 391.09 36.1818 391.52L34.9366 391.64V391.65Z" fill="#263238"/>
<path d="M45.5408 321.86C45.5408 321.86 32.0745 346.76 34.7658 376.1C34.7658 376.1 40.3692 340.05 45.5408 321.86Z" fill="#407BFF"/>
<path d="M18.7783 309.54C18.7783 309.54 38.4304 337.06 35.0262 372.21C35.0061 372.25 27.3642 328.06 18.7783 309.54Z" fill="#407BFF"/>
<path d="M34.9362 380.69C34.9362 380.69 39.1839 344.35 16.6096 333.86C16.5493 333.86 28.5897 342.72 34.9362 380.69Z" fill="#407BFF"/>
<path d="M37.2562 313.27L36.8444 313.34C36.252 313.45 35.8603 314.01 35.9708 314.6C35.9708 314.64 35.9909 314.67 36.0009 314.71L36.503 316.52C36.6637 317.1 37.2562 317.44 37.8386 317.28C38.0194 317.23 38.18 317.14 38.3106 317.01L38.9834 316.36C39.4252 315.94 40.1181 315.96 40.5399 316.4C40.6403 316.51 40.7206 316.63 40.7709 316.77L41.6847 319.26C41.8855 319.82 42.5081 320.12 43.0805 319.91C43.1508 319.89 43.211 319.85 43.2813 319.82L45.3801 318.58C45.8923 318.27 46.063 317.61 45.7517 317.09C45.7115 317.02 45.6613 316.95 45.601 316.89L45.2596 316.54C44.8479 316.1 44.868 315.4 45.3098 314.99C45.5006 314.81 45.7517 314.71 46.0228 314.7H47.8504C48.453 314.69 48.9249 314.19 48.9149 313.59C48.9149 313.54 48.9149 313.5 48.9048 313.45L48.704 311.89C48.6237 311.3 48.0814 310.88 47.4889 310.95C47.3684 310.97 47.2479 311 47.1375 311.05L47.017 311.11C46.4646 311.36 45.8119 311.12 45.5609 310.57C45.4303 310.29 45.4303 309.97 45.5408 309.69L46.1433 308.32C46.3843 307.77 46.1333 307.13 45.5809 306.9C45.4906 306.86 45.3902 306.83 45.2797 306.82L43.3416 306.56C42.7491 306.47 42.1968 306.88 42.1064 307.47C42.1064 307.52 42.0964 307.56 42.0964 307.61C42.0663 308.21 41.5541 308.68 40.9416 308.65C40.57 308.63 40.2286 308.43 40.0378 308.11L39.7867 307.66C39.4855 307.14 38.8127 306.95 38.2905 307.25C38.2202 307.29 38.1499 307.34 38.0897 307.39L36.6537 308.73C36.2118 309.15 36.1917 309.84 36.6135 310.28C36.6235 310.3 36.6436 310.31 36.6537 310.32L37.8085 311.38C38.2503 311.8 38.2704 312.49 37.8486 312.93C37.698 313.09 37.4972 313.2 37.2763 313.25L37.2562 313.27Z" fill="#407BFF"/>
<path d="M39.0534 371.34L40.63 359.2H26.8825L28.4491 371.34C21.8716 373.59 17.4632 379.75 17.4531 386.68C17.5736 390.43 18.4874 394.12 20.1243 397.5C21.7109 400.82 25.0951 402.93 28.7905 402.9H38.7923C42.4877 402.93 45.8618 400.82 47.4384 397.5C49.0853 394.12 50.0092 390.44 50.1297 386.68C50.1297 379.73 45.6811 373.56 39.0634 371.34H39.0534Z" fill="#407BFF"/>
<path d="M566.035 266.31L558.825 265.84C558.825 265.84 553.774 228.96 553.292 227.49C552.629 224.81 548.582 204.25 546.985 199L547.759 198.88C546.905 196.18 547.628 193.26 550.43 192.35C553.231 191.44 557.067 192.94 557.941 195.62C559.739 201.07 563.173 221.76 563.685 224.24C563.685 224.3 563.685 224.36 563.685 224.41C565.322 235.2 566.035 266.31 566.035 266.31Z" fill="#B97964"/>
<path d="M566.035 266.31C566.035 269.66 563.033 271.4 560.864 271.63H549.426L548.763 271.47C548.562 271.41 548.442 271.21 548.502 271C548.522 270.93 548.562 270.86 548.612 270.81L550.671 269.13C552.94 267.27 556.033 266.66 558.825 265.86L566.035 266.31Z" fill="#B97964"/>
<path d="M551.404 181.02C550.359 181.53 549.576 181.68 548.833 182.45C541.201 190.29 547.879 210.56 547.879 210.56L562.259 209.21C562.259 209.21 563.685 191.94 562.058 186.55C560.331 180.9 557.007 177.31 551.404 181.03V181.02Z" fill="#407BFF"/>
<path d="M599.705 378.95L600.97 392.22L611.002 393.31L612.017 379.04L599.705 378.95Z" fill="#E4897B"/>
<path d="M598.801 389.92C598.781 389.4 599.243 388.98 599.755 389L602.798 389.12C603.571 389.13 604.354 390.56 604.796 391.19C606.724 393.94 608.211 392.93 610.38 390.4C611.735 390.26 612.087 391.84 612.187 392.27L614.607 401.7C614.818 402.49 614.356 403.3 613.583 403.51C613.442 403.55 613.302 403.57 613.161 403.56C609.024 403.5 607.076 403.48 601.924 403.4L586.188 403.18C581.901 403.12 581.067 398.72 582.844 398.34C590.808 396.67 596.471 394.37 598.952 392.06C599.303 391.76 598.821 390.87 598.781 389.9L598.801 389.92Z" fill="#407BFF"/>
<path d="M600.197 395.19C600.116 395.19 600.026 395.15 599.986 395.07C599.403 394.1 598.399 393.43 597.295 393.26C597.154 393.24 597.064 393.11 597.084 392.97C597.104 392.83 597.224 392.74 597.375 392.76C598.62 392.95 599.765 393.72 600.418 394.81C600.488 394.93 600.448 395.08 600.327 395.15C600.287 395.17 600.247 395.19 600.197 395.19Z" fill="white"/>
<path d="M597.938 396.5C597.858 396.5 597.767 396.46 597.727 396.38C597.145 395.41 596.141 394.74 595.036 394.57C594.895 394.55 594.805 394.42 594.825 394.28C594.845 394.14 594.976 394.05 595.116 394.07C596.361 394.26 597.506 395.03 598.159 396.12C598.229 396.24 598.189 396.39 598.069 396.46C598.028 396.48 597.988 396.5 597.938 396.5Z" fill="white"/>
<path d="M595.156 397.82C595.075 397.82 594.985 397.78 594.945 397.7C594.363 396.73 593.358 396.06 592.254 395.89C592.113 395.87 592.023 395.74 592.043 395.6C592.063 395.46 592.193 395.37 592.334 395.39C593.579 395.58 594.714 396.35 595.377 397.44C595.447 397.56 595.407 397.71 595.286 397.78C595.246 397.8 595.206 397.82 595.156 397.82Z" fill="white"/>
<path d="M553.462 196.22C557.218 202.83 565.262 211.69 586.711 225.31L613.162 204.62C604.275 193.83 599.665 187.67 588.82 164.37C587.786 162.07 584.833 159.34 582.413 158.73C580.415 158.26 578.306 158.58 576.539 159.63C574.581 160.8 572.442 162.14 570.363 163.62C565.623 166.8 561.114 170.32 556.867 174.16C553.904 176.94 550.942 180.12 548.833 182.45C548.833 182.45 548.833 182.82 549.004 183.68C549.747 188.09 551.263 192.34 553.462 196.22Z" fill="#407BFF"/>
<path d="M537.194 133.99C532.635 138.91 532.284 144.49 533.208 148.23C535.025 153.15 537.586 156.33 540.066 160.94L546.704 127.94C543.722 129.32 542.165 129.02 537.204 133.99H537.194Z" fill="#263238"/>
<path d="M543.3 129.73C547.979 126 553.773 127.65 557.228 128.94C561.144 130.95 563.996 134.56 565.081 138.87C565.994 142.92 567.109 147.83 565.151 150.54C564.066 152.1 562.379 153.12 560.521 153.37L536.461 139.71C537.867 135.86 540.227 132.43 543.3 129.73Z" fill="#263238"/>
<path d="M565.282 184.71C567.471 185.24 567.652 181 568.958 179.13C572.593 169.78 569.741 164.03 569.741 164.03C566.266 162.94 565.413 161.53 563.435 156.74C563.374 156.6 563.294 156.47 563.214 156.35C562.842 155.78 562.31 155.33 561.687 155.08C560 154.34 558.042 155.14 557.309 156.85L553.463 161.24L553.553 161.47C555.019 163.84 556.234 165.64 557.118 167.09C557.188 167.28 557.339 167.45 557.439 167.62C557.51 167.81 557.64 168 557.751 168.17C558.875 170.22 557.279 173.07 556.365 174.62C555.843 175.62 557.891 182.92 565.282 184.7V184.71Z" fill="#B97964"/>
<path d="M562.37 140.78C564.278 150.2 565.292 154.13 562.028 160.29C557.108 169.55 545.519 170.21 540.87 161.64C536.753 153.91 534.282 139.84 542.065 133.41C549.847 126.98 560.431 131.35 562.36 140.78H562.37Z" fill="#B97964"/>
<path d="M568.304 147.8C567.822 150.05 566.446 151.82 564.96 152.77C562.731 154.19 560.241 150.69 560.291 147.97C560.341 145.52 562.259 143.27 564.759 142.96C567.23 142.66 568.847 145.22 568.294 147.8H568.304Z" fill="#B97964"/>
<path opacity="0.2" d="M563.032 149.27C562.922 149.27 562.821 149.19 562.791 149.08C562.56 148.12 562.711 147.08 563.213 146.23C563.715 145.37 564.559 144.74 565.503 144.49C565.633 144.46 565.774 144.53 565.814 144.67C565.854 144.8 565.774 144.94 565.633 144.98C564.81 145.2 564.087 145.75 563.645 146.49C563.203 147.23 563.072 148.14 563.273 148.97C563.303 149.1 563.223 149.24 563.092 149.27C563.072 149.27 563.052 149.27 563.032 149.27Z" fill="black"/>
<path d="M551.183 147.75C551.444 148.74 551.183 149.72 550.58 149.93C549.988 150.14 549.285 149.52 549.024 148.53C548.763 147.54 549.024 146.56 549.626 146.35C550.219 146.14 550.922 146.76 551.183 147.75Z" fill="#263238"/>
<path d="M542.156 150.75C542.407 151.71 542.136 152.66 541.533 152.87C540.941 153.08 540.248 152.48 539.997 151.52C539.746 150.56 540.017 149.61 540.619 149.4C541.212 149.19 541.905 149.79 542.156 150.75Z" fill="#263238"/>
<path d="M552.016 143.72C551.906 143.77 551.775 143.78 551.655 143.72C549.827 142.88 548.391 143.87 548.371 143.88C548.16 144.03 547.879 143.97 547.749 143.75C547.618 143.53 547.688 143.22 547.899 143.07C547.969 143.02 549.777 141.77 552.046 142.82C552.267 142.92 552.368 143.21 552.257 143.46C552.207 143.58 552.117 143.67 552.006 143.72H552.016Z" fill="#263238"/>
<path d="M537.657 147.14C537.556 147.14 537.456 147.1 537.386 147.01C537.235 146.83 537.255 146.53 537.426 146.34C539.143 144.46 540.981 144.84 541.051 144.86C541.272 144.91 541.392 145.16 541.332 145.41C541.272 145.67 541.041 145.83 540.83 145.79C540.76 145.77 539.334 145.5 537.968 147C537.878 147.1 537.767 147.15 537.657 147.14Z" fill="#263238"/>
<path d="M544.465 149.47C544.465 149.47 544.123 153.4 543.19 156.09C543.029 156.56 543.37 157.05 543.862 157.07C545.128 157.11 546.323 156.29 546.323 156.29L544.455 149.48L544.465 149.47Z" fill="#A24E3F"/>
<path d="M549.978 146.27L547.719 146.47C547.719 146.47 549.366 147.66 549.978 146.27Z" fill="#263238"/>
<path d="M540.84 149.34L538.581 149.54C538.581 149.54 540.228 150.73 540.84 149.34Z" fill="#263238"/>
<path d="M547.518 158.71C548.482 159.39 549.918 160.9 549.918 160.9C550.078 160.79 550.239 160.68 550.39 160.57C552.529 159.05 553.031 157.63 552.93 156.53C552.88 155.93 552.639 155.41 552.398 155.03C552.117 154.58 551.826 154.33 551.826 154.33C551.163 155.82 549.275 157.39 548.241 158.19C547.809 158.53 547.518 158.72 547.518 158.72V158.71Z" fill="#263238"/>
<path d="M548.24 158.18L548.963 158.81C550.972 157.37 552.197 156.09 552.408 155.02C552.126 154.57 551.835 154.32 551.835 154.32C551.173 155.81 549.285 157.38 548.25 158.18H548.24Z" fill="white"/>
<path d="M550.4 160.57C552.539 159.05 553.041 157.63 552.941 156.53C552.228 157.08 551.434 157.82 550.892 158.69C550.47 159.36 550.37 160.01 550.39 160.57H550.4Z" fill="#DE5753"/>
<path d="M559.668 143.84C559.668 143.84 552.97 139.02 551.625 133.82C551.625 133.82 531.671 134.19 537.164 150.29C537.164 150.29 529.823 136.99 544.816 130.89C559.809 124.79 567.631 144.44 562.209 153.27C562.169 153.2 563.815 146.87 559.668 143.83V143.84Z" fill="#263238"/>
<path d="M573.406 127.37C574.008 131.72 571.006 135.79 566.688 136.45C562.38 137.11 558.393 134.12 557.791 129.77C557.228 125.68 559.849 121.79 563.846 120.82C568.305 119.96 572.572 122.88 573.406 127.37Z" fill="#263238"/>
<path d="M538.229 134.66C536.632 137.13 535.849 140.05 536 142.98C536.462 145.02 539.545 145.82 539.545 145.82L541.904 140.56L542.788 144.46C548.151 142.51 550.671 138.79 551.595 134.08L547.277 129.3C547.277 129.3 539.705 132.62 538.239 134.66H538.229Z" fill="#263238"/>
<path d="M565.743 133.95C566.717 136.05 568.475 137.75 570.584 138.65C569.63 138.97 568.575 138.97 567.631 138.65C567.852 139.44 568.204 140.19 568.676 140.85C566.025 139.52 564.046 136.91 563.464 133.97L565.743 133.94V133.95Z" fill="#263238"/>
<path d="M584 224.01L611.585 202.67L584 224.01Z" fill="#407BFF"/>
<path d="M663.401 365.31L672.349 375.08L681.085 369.95L673.363 357.98L663.401 365.31Z" fill="#E4897B"/>
<path d="M669.246 374.59C668.914 374.19 669.035 373.57 669.457 373.27L671.947 371.48C672.57 371.01 674.046 371.66 674.779 371.89C677.952 372.89 678.535 371.17 678.745 367.82C679.74 366.87 680.965 367.92 681.306 368.19L688.868 374.19C689.51 374.69 689.631 375.61 689.139 376.26C689.049 376.38 688.948 376.48 688.838 376.56C685.524 379.06 683.947 380.25 679.82 383.36L667.187 392.89C663.743 395.49 660.449 392.5 661.634 391.11C666.966 384.87 670.089 379.55 670.682 376.18C670.772 375.72 669.868 375.31 669.256 374.57L669.246 374.59Z" fill="#407BFF"/>
<path d="M669.929 378.2C669.839 378.2 669.758 378.15 669.708 378.07C669.638 377.95 669.678 377.8 669.809 377.73C670.913 377.11 672.279 377.02 673.454 377.48C673.584 377.53 673.645 377.68 673.594 377.8C673.544 377.93 673.393 377.99 673.273 377.94C672.239 377.53 671.034 377.61 670.06 378.16C670.019 378.18 669.979 378.19 669.939 378.19L669.929 378.2Z" fill="white"/>
<path d="M668.914 380.63C668.824 380.63 668.744 380.58 668.693 380.5C668.623 380.38 668.663 380.23 668.794 380.16C669.898 379.54 671.264 379.45 672.439 379.91C672.57 379.96 672.63 380.11 672.58 380.23C672.529 380.36 672.389 380.42 672.258 380.37C671.224 379.96 670.019 380.04 669.045 380.59C669.005 380.61 668.965 380.62 668.924 380.62L668.914 380.63Z" fill="white"/>
<path d="M667.498 383.4C667.408 383.4 667.328 383.35 667.277 383.27C667.207 383.15 667.247 383 667.378 382.93C668.482 382.31 669.848 382.22 671.023 382.68C671.154 382.73 671.214 382.88 671.164 383C671.113 383.13 670.963 383.19 670.842 383.14C669.808 382.73 668.603 382.81 667.629 383.36C667.589 383.38 667.548 383.39 667.508 383.39L667.498 383.4Z" fill="white"/>
<path d="M586.712 225.31C586.712 225.31 594.705 326.87 594.766 327.44L599.766 386.88H612.741C612.741 386.88 612.831 383.46 613.504 378.95C619.429 339.43 613.353 326.65 613.353 326.65C613.353 326.65 618.565 250.35 620.393 244.6C620.573 244 614.367 200.27 586.712 225.31Z" fill="#263238"/>
<path d="M586.511 225.18L586.872 225.77C592.225 232.98 602.357 240.65 607.649 247.23L609.497 251.38C609.497 251.38 650.448 222.86 625.383 210.59C624.339 210.08 614.277 204.75 614.277 204.75C607.639 203.13 586.511 225.17 586.511 225.17V225.18Z" fill="#263238"/>
<path d="M641.049 253.9C641.209 267.07 642.716 301.24 644.503 314.28C644.503 314.28 654.786 322.34 660.078 330.45L676.125 361.88L665.872 368.63L632.895 336.23C625.464 328.72 622.772 323.58 620.402 316.98C614.598 300.86 613.473 281.26 610.913 265.52C609.738 258.22 604.556 234.51 606.354 227.4C608.774 217.77 611.475 202.02 622.602 209.16C633.507 214.18 639.954 217.3 641.049 253.92V253.9Z" fill="#263238"/>
<path opacity="0.2" d="M615.452 297.41L605.972 235.89L595.157 232.3L603.603 240.14L615.452 297.41Z" fill="black"/>
<path opacity="0.2" d="M563.133 199.2C563.133 199.2 581.098 207.91 586.812 204.69C592.526 201.47 591.482 190.58 591.371 188.46C591.271 186.38 590.989 184.13 590.989 184.13L592.335 183.97L589.513 167.4C589.513 167.4 584.944 197.57 583.99 197.57C583.036 197.57 563.123 199.21 563.123 199.21L563.133 199.2Z" fill="black"/>
<path d="M588.419 173.65C589.855 179.81 589.543 191.39 589.352 196C589.292 198.17 588.459 200.24 587.003 201.83C585.225 203.71 583.307 204.68 577.352 203.02C572.261 201.6 549.717 195.65 549.717 195.65L551.153 189.87C551.153 189.87 562.812 191.36 577.965 193.08C577.784 185.63 578.065 175.5 578.688 173.07C579.732 169.08 586.591 165.85 588.419 173.66V173.65Z" fill="#B97964"/>
<path d="M577.723 159.93C574.51 162.33 574.108 183.32 574.108 183.32H589.884C589.884 183.32 590.547 168.7 589.151 165.16C586.982 159.44 581.329 157.24 577.734 159.93H577.723Z" fill="#407BFF"/>
<path d="M553.472 189.9L547.808 187.08C547.176 186.77 546.503 186.58 545.8 186.53L542.356 186.28C540.98 186.19 539.785 187.25 539.695 188.65V188.68L539.524 191.77C539.484 193 540.307 194.08 541.492 194.34L545.007 195.11C545.007 195.11 551.072 197.57 552.89 194.51L553.492 189.91L553.472 189.9Z" fill="#B97964"/>
<path d="M541 189.69C540.9 189.07 538.871 188.71 537.636 188.53C536.401 188.34 533.077 188.21 532.374 187.63C531.671 187.04 531.792 185.81 532.485 185.82C533.188 185.83 535.407 185.8 537.154 185.96C538.901 186.12 542.275 186.14 543.009 186.32C543.732 186.51 541 189.69 541 189.69Z" fill="#B97964"/>
<path d="M433.462 226.52L451.066 236.2L469.714 210.17L477.104 223.47C477.104 223.47 459.28 250.08 452.592 250.46C445.904 250.84 428.381 232.31 428.381 232.31L433.462 226.52Z" fill="#E4897B"/>
<path d="M434.366 227.33C434.366 227.33 435.551 224.05 434.286 221.46C433.02 218.87 432.709 216.47 431.634 214.61C430.56 212.75 430.008 215.59 430.018 217.16C430.028 218.73 430.028 220.51 428.843 220.33C427.658 220.15 419.574 213.74 417.907 213.68C416.23 213.62 417.214 215.06 417.214 215.06C417.214 215.06 415.206 213.56 414.392 214.18C414.182 214.34 413.951 215.06 414.764 215.89C416.572 217.75 420.578 221.47 420.578 221.47C420.357 221.25 415.085 217.02 414.212 216.49C413.067 215.8 412.173 216.05 411.792 216.72C411.249 217.68 417.606 223.15 417.706 223.56C417.706 223.56 414.151 220.29 412.806 220.74C411.46 221.19 413.579 223.37 415.818 224.94C417.867 226.38 421.522 229.73 423.752 230.99C426.503 232.54 428.692 232.97 431.092 231.24C433.492 229.51 434.366 227.33 434.366 227.33Z" fill="#E4897B"/>
<path opacity="0.3" d="M422.064 219.4C422.004 219.4 421.944 219.38 421.894 219.33C420.448 217.96 418.921 216.63 417.365 215.4C417.254 215.31 417.234 215.16 417.324 215.05C417.415 214.94 417.576 214.93 417.676 215.01C419.253 216.25 420.789 217.59 422.245 218.97C422.345 219.06 422.345 219.22 422.245 219.32C422.195 219.37 422.125 219.4 422.064 219.4Z" fill="black"/>
<path opacity="0.3" d="M419.052 225.13C419.052 225.13 418.982 225.13 418.952 225.11C418.821 225.06 418.761 224.91 418.821 224.78C419.856 222.37 421.653 220.25 423.852 218.81C423.963 218.73 424.123 218.77 424.204 218.88C424.284 219 424.244 219.15 424.133 219.23C422.005 220.61 420.287 222.66 419.283 224.98C419.243 225.07 419.153 225.13 419.052 225.13Z" fill="black"/>
<path opacity="0.3" d="M429.787 227.62C429.726 227.62 429.666 227.6 429.626 227.56C428.782 226.84 428.19 225.81 428.009 224.72C427.818 223.63 428.029 222.46 428.582 221.5C428.652 221.38 428.803 221.34 428.923 221.41C429.044 221.48 429.084 221.63 429.013 221.75C428.521 222.61 428.331 223.66 428.501 224.64C428.672 225.62 429.204 226.55 429.957 227.19C430.068 227.28 430.078 227.44 429.987 227.54C429.937 227.6 429.867 227.63 429.797 227.63L429.787 227.62Z" fill="black"/>
<path d="M495.401 195.08C495.591 196.85 495.501 198.4 494.908 199.19C494.296 200 493.241 200.56 492.097 200.94C493.111 202.88 495.662 204.44 495.662 204.44H502.821C502.821 204.44 506.055 205.16 507.29 204.46C508.304 203.89 509.379 203.35 510.343 202.7C510.835 202.37 511.297 201.98 511.749 201.57C510.243 200.69 508.867 199.5 508.385 197.94C507.14 193.91 508.475 180.14 508.475 180.14L493.372 186.32C493.372 186.32 493.493 186.66 493.663 187.23C494.145 188.82 495.109 192.22 495.401 195.05V195.08Z" fill="#E4897B"/>
<path d="M486.332 157.55C486.744 157.03 485.599 145.24 505.974 151.11C521.098 155.46 515.384 167.27 515.384 167.27L498.081 154.83L486.322 157.55H486.332Z" fill="#263238"/>
<path opacity="0.2" d="M505.974 187.15C505.974 187.15 502.731 193.87 495.27 193.64C494.978 190.8 494.004 187.41 493.532 185.82C494.095 185.61 494.456 185.48 494.456 185.48L505.974 187.15Z" fill="black"/>
<path d="M486.734 155.14C486.734 155.14 482.336 167.53 488.19 173.73C494.045 179.93 498.604 156.18 498.604 156.18L486.724 155.14H486.734Z" fill="#263238"/>
<path d="M505.985 187.62C501.375 191.08 496.163 191.93 491.775 189.56C488.953 188.05 486.644 185.46 485.539 182.16C485.388 181.73 485.268 181.28 485.157 180.82C483.31 172.39 484.866 158.55 494.125 155.01C500.712 152.44 508.154 155.68 510.724 162.25C511.467 164.11 511.749 166.13 511.558 168.13C510.825 177.44 511.367 183.57 505.995 187.61L505.985 187.62Z" fill="#E4897B"/>
<path d="M498.885 170.56C498.935 171.53 498.333 172.32 497.68 172.31C497.027 172.3 496.535 171.49 496.545 170.51C496.555 169.53 497.107 168.75 497.75 168.76C498.383 168.77 498.895 169.57 498.885 170.56Z" fill="#263238"/>
<path d="M489.495 170.56C489.545 171.53 488.933 172.32 488.29 172.31C487.647 172.3 487.145 171.48 487.155 170.51C487.165 169.53 487.718 168.75 488.36 168.76C488.993 168.77 489.505 169.63 489.495 170.56Z" fill="#263238"/>
<path d="M491.383 170.72C490.429 173.03 489.154 175.19 487.607 177.15C488.652 177.93 489.987 178.2 491.263 177.9L491.383 170.72Z" fill="#DE5753"/>
<path d="M485.529 166.56C485.67 166.64 485.851 166.64 486.001 166.56C486.965 165.96 488.16 165.84 489.225 166.25C489.446 166.36 489.717 166.27 489.817 166.05C489.928 165.83 489.837 165.56 489.616 165.46C488.281 164.91 486.764 165.04 485.549 165.8C485.338 165.92 485.258 166.19 485.379 166.4C485.419 166.47 485.469 166.52 485.529 166.56Z" fill="#263238"/>
<path d="M499.056 167.06C499.146 167.06 499.237 167.03 499.307 166.98C499.478 166.8 499.458 166.52 499.277 166.35C498.222 165.36 496.746 164.96 495.33 165.25C495.089 165.31 494.949 165.56 495.019 165.79C495.089 166.02 495.33 166.16 495.571 166.1C496.696 165.9 497.851 166.23 498.684 167.01C498.795 167.08 498.935 167.09 499.066 167.05L499.056 167.06Z" fill="#263238"/>
<path d="M504.91 156.36L504.127 160.43C505.432 161.24 506.145 162.81 505.412 164.39C503.846 167.75 505.452 173.24 507.963 175.56C507.963 175.56 508.144 174.07 509.389 174.51C510.634 174.95 509.439 181.22 508.114 185.07C508.114 185.07 510.996 183.15 513.667 175.12C516.137 167.69 516.8 161.4 515.444 158.37L504.91 156.36Z" fill="#263238"/>
<path d="M515.494 175.87C514.41 177.96 512.542 179.54 510.292 180.26C507.31 181.19 505.713 178.55 506.456 175.69C507.139 173.15 509.499 169.53 512.542 169.87C515.585 170.22 516.79 173.28 515.494 175.86V175.87Z" fill="#E4897B"/>
<path d="M486.735 155.14C486.212 156.11 487.869 159.69 491.645 161.4C495.421 163.12 491.404 159.31 491.404 159.31C491.404 159.31 498.986 161.9 499.197 160.93C499.397 159.96 497.058 158.55 497.058 158.55C497.058 158.55 503.374 161.51 508.485 160.25C513.607 158.99 504.278 150.55 498.333 150.72C492.388 150.89 488.321 152.19 486.745 155.12L486.735 155.14Z" fill="#263238"/>
<path opacity="0.1" d="M508.716 176.41L508.224 176.32C508.525 174.68 509.579 173.21 511.045 172.39C511.899 171.91 512.722 171.89 513.235 172.34L512.903 172.72C512.491 172.36 511.799 172.55 511.286 172.83C509.951 173.58 508.987 174.92 508.716 176.42V176.41Z" fill="black"/>
<path d="M494.437 181.22C495.2 181.24 495.953 181.08 496.616 180.71C497.419 180.27 498.022 179.56 498.484 178.78C498.735 178.36 498.082 177.99 497.831 178.4C497.429 179.07 496.917 179.67 496.234 180.06C495.672 180.37 495.069 180.48 494.437 180.47C493.955 180.46 493.955 181.21 494.437 181.22Z" fill="#263238"/>
<path d="M532.225 403.099H536.172L528.871 318.189H524.935L532.225 403.099Z" fill="#407BFF"/>
<path opacity="0.6" d="M532.225 403.099H536.172L528.871 318.189H524.935L532.225 403.099Z" fill="white"/>
<path d="M491.856 403.099H487.909L495.21 318.189H499.156L491.856 403.099Z" fill="#407BFF"/>
<path opacity="0.6" d="M491.856 403.099H487.909L495.21 318.189H499.156L491.856 403.099Z" fill="white"/>
<path d="M515.424 318.2H434.707C438.101 309.83 444.277 304.7 450.955 304.7H510.002L515.434 318.2H515.424Z" fill="#263238"/>
<path d="M478.309 403.099H482.256L474.965 318.189H471.019L478.309 403.099Z" fill="#407BFF"/>
<path opacity="0.6" d="M478.309 403.099H482.256L474.965 318.189H471.019L478.309 403.099Z" fill="white"/>
<path d="M437.941 403.099H433.994L441.295 318.189H445.241L437.941 403.099Z" fill="#407BFF"/>
<path opacity="0.6" d="M437.941 403.099H433.994L441.295 318.189H445.241L437.941 403.099Z" fill="white"/>
<path d="M534.122 318.2H489.757C493.623 309.83 500.632 304.7 508.234 304.7H523.94C531.531 304.7 535.277 309.06 534.132 318.2H534.122Z" fill="#263238"/>
<path opacity="0.5" d="M534.122 318.2H489.757C493.623 309.83 500.632 304.7 508.234 304.7H523.94C531.531 304.7 535.277 309.06 534.132 318.2H534.122Z" fill="black"/>
<path d="M422.596 372.12L419.362 392.66L411.921 391.66L409.632 370.87L422.596 372.12Z" fill="#E4897B"/>
<path d="M408.015 386.93C407.895 385.67 407.985 384.62 409.472 384.54L411.57 384.43C412.364 384.43 412.926 384.91 413.569 385.32C418.379 388.37 420.347 384.43 422.215 384.43C424.615 384.43 423.068 391.43 423.179 391.79L425.8 399.91C426.031 400.59 425.569 402.05 424.775 402.25C424.635 402.28 424.484 402.3 424.344 402.3H396.588C392.169 402.3 392.119 397.36 393.937 397.01C402.111 395.47 405.334 393.03 408.036 391.24C408.036 391.24 408.206 388.86 408.036 386.93H408.015Z" fill="#263238"/>
<path opacity="0.4" d="M396.578 402.3H424.334C424.485 402.3 424.625 402.29 424.766 402.25C425.308 402.12 425.69 401.4 425.81 400.74V400.12H393.033C393.465 401.27 394.57 402.29 396.578 402.29V402.3Z" fill="white"/>
<path d="M403.677 394.25C404.019 394.53 404.33 394.85 404.611 395.19C404.641 395.23 404.681 395.27 404.711 395.31C404.691 395.28 404.701 395.3 404.711 395.31L404.762 395.38C404.832 395.47 404.892 395.56 404.952 395.65C405.073 395.83 405.183 396.02 405.294 396.21C405.384 396.38 405.645 396.45 405.806 396.34C405.987 396.23 406.037 396.01 405.937 395.83C405.495 395.02 404.902 394.3 404.199 393.71C404.049 393.58 403.808 393.55 403.667 393.71C403.537 393.85 403.506 394.11 403.667 394.24L403.677 394.25Z" fill="#407BFF"/>
<path d="M406.228 392.83C406.539 393.1 406.83 393.39 407.092 393.71C407.122 393.75 407.152 393.79 407.182 393.82L407.222 393.87C407.222 393.87 407.262 393.93 407.232 393.89C407.292 393.97 407.353 394.05 407.413 394.13C407.533 394.3 407.644 394.47 407.754 394.65C407.855 394.82 408.096 394.89 408.266 394.78C408.437 394.67 408.507 394.45 408.397 394.27C407.955 393.53 407.403 392.86 406.75 392.3C406.599 392.17 406.358 392.14 406.218 392.3C406.087 392.44 406.057 392.69 406.218 392.83H406.228Z" fill="#407BFF"/>
<path d="M408.116 391.66C408.266 391.73 408.407 391.82 408.547 391.91C408.577 391.93 408.618 391.96 408.648 391.98C408.688 392.01 408.577 391.93 408.638 391.97L408.688 392.01C408.748 392.06 408.808 392.12 408.869 392.17C408.929 392.22 408.979 392.28 409.039 392.34C409.059 392.37 409.09 392.4 409.11 392.42C409.12 392.44 409.14 392.46 409.15 392.47L409.12 392.43L409.15 392.46C409.24 392.59 409.331 392.72 409.401 392.86C409.491 393.03 409.752 393.1 409.913 392.99C410.094 392.88 410.144 392.66 410.044 392.48C409.712 391.84 409.15 391.31 408.497 390.98C408.316 390.89 408.085 390.93 407.985 391.11C407.895 391.28 407.935 391.53 408.116 391.62V391.66Z" fill="#407BFF"/>
<path d="M408.306 389.13C408.497 389.13 408.688 389.14 408.869 389.16C408.909 389.16 408.949 389.16 408.989 389.17C409.07 389.17 408.969 389.17 409.049 389.17C409.14 389.18 409.24 389.2 409.331 389.22C409.682 389.29 410.034 389.39 410.375 389.52C410.556 389.59 410.797 389.44 410.837 389.26C410.887 389.05 410.767 388.87 410.576 388.8C409.853 388.53 409.08 388.39 408.306 388.38C408.106 388.38 407.925 388.55 407.925 388.76C407.925 388.97 408.085 389.13 408.306 389.14V389.13Z" fill="#407BFF"/>
<g opacity="0.3">
<path d="M416.129 389.38C416.17 390.11 416.451 390.9 417.154 391.24C417.585 391.45 418.108 391.44 418.6 391.43C420.076 391.39 421.542 391.35 423.018 391.31L423.038 391.27C423.269 389.36 423.892 384.7 422.064 384.7C420.628 384.7 419.122 387.38 416.109 386.59C416.129 387.6 416.089 388.89 416.109 389.38H416.129Z" fill="black"/>
</g>
<path d="M470.798 274.64C470.798 274.64 438.493 279.08 419.925 287.07C413.479 289.84 409.673 295.53 408.829 301.69C404.712 335.06 408.046 375.61 408.046 375.61L423.561 377.71C423.561 377.71 431.825 339.71 431.634 312.87C448.575 308.11 492.569 311.21 497.751 297.23C500.281 289.99 500.954 282.23 499.699 274.66L470.788 274.64H470.798Z" fill="#407BFF"/>
<path opacity="0.3" d="M464.461 281.3C464.461 281.3 440.581 303.5 441.666 311.08C438.282 311.43 434.938 312.03 431.644 312.88C431.644 315.49 431.765 318.67 431.473 321.26C421.401 306.3 422.355 291.93 464.471 281.31L464.461 281.3Z" fill="black"/>
<path d="M470.808 369.45L474.353 389.94L466.982 391.37L458.125 372.41L470.808 369.45Z" fill="#E4897B"/>
<path d="M461.961 387.51C461.549 386.31 461.389 385.27 462.815 384.85L464.823 384.25C465.596 384.06 466.259 384.4 466.972 384.64C472.365 386.48 473.349 382.19 475.166 381.75C477.496 381.19 477.647 388.35 477.848 388.68L482.306 395.96C482.688 396.57 482.587 398.1 481.854 398.47C481.724 398.54 481.583 398.59 481.443 398.62C477.305 399.62 475.347 400.09 470.206 401.33L454.47 405.12C450.182 406.15 448.967 401.37 450.644 400.6C458.226 397.19 460.786 394.06 462.985 391.69C462.985 391.69 462.594 389.34 461.961 387.5V387.51Z" fill="#263238"/>
<path opacity="0.4" d="M454.47 405.14L470.205 401.35C475.347 400.11 477.305 399.64 481.442 398.64C481.583 398.61 481.723 398.56 481.854 398.49C482.346 398.24 482.547 397.45 482.507 396.78L482.346 396.18L450.503 403.86C451.196 404.87 452.511 405.61 454.459 405.14H454.47Z" fill="white"/>
<path d="M459.481 395.64C459.873 395.84 460.254 396.07 460.606 396.33C460.606 396.33 460.666 396.38 460.636 396.36C460.606 396.34 460.686 396.4 460.686 396.4C460.726 396.43 460.766 396.47 460.807 396.5C460.887 396.57 460.967 396.64 461.048 396.71C461.208 396.86 461.359 397.01 461.51 397.18C461.64 397.33 461.911 397.32 462.042 397.18C462.182 397.02 462.182 396.81 462.042 396.65C461.429 395.97 460.676 395.41 459.853 395C459.672 394.91 459.441 394.95 459.34 395.13C459.25 395.3 459.29 395.55 459.471 395.64H459.481Z" fill="#407BFF"/>
<path d="M461.63 393.67C461.991 393.86 462.342 394.08 462.674 394.32L462.734 394.36C462.734 394.36 462.794 394.41 462.764 394.38C462.734 394.35 462.804 394.41 462.804 394.41L462.855 394.45C462.935 394.51 463.015 394.58 463.096 394.65C463.246 394.78 463.397 394.93 463.537 395.07C463.678 395.21 463.929 395.22 464.07 395.07C464.21 394.92 464.22 394.69 464.07 394.54C463.467 393.93 462.764 393.41 462.001 393.01C461.83 392.92 461.579 392.96 461.489 393.14C461.399 393.31 461.439 393.56 461.619 393.65L461.63 393.67Z" fill="#407BFF"/>
<path d="M463.186 392.09C463.347 392.13 463.507 392.17 463.658 392.24C463.668 392.24 463.698 392.26 463.708 392.26C463.648 392.23 463.678 392.26 463.708 392.26C463.748 392.28 463.778 392.29 463.818 392.31C463.889 392.35 463.959 392.38 464.029 392.43C464.1 392.47 464.16 392.51 464.22 392.55C464.25 392.57 464.29 392.6 464.321 392.62C464.28 392.59 464.391 392.67 464.321 392.62L464.361 392.65C464.491 392.75 464.602 392.87 464.712 392.99C464.843 393.14 465.114 393.13 465.244 392.99C465.395 392.83 465.385 392.62 465.244 392.46C464.762 391.91 464.09 391.54 463.387 391.37C463.196 391.33 462.965 391.43 462.925 391.63C462.885 391.82 462.985 392.04 463.186 392.09Z" fill="#407BFF"/>
<path d="M462.784 389.58C463.156 389.5 463.427 389.46 463.809 389.44C464.19 389.42 464.532 389.44 464.893 389.48C465.094 389.5 465.275 389.29 465.275 389.1C465.265 388.88 465.104 388.75 464.893 388.72C464.12 388.62 463.347 388.67 462.584 388.84C462.393 388.88 462.262 389.11 462.322 389.3C462.383 389.5 462.584 389.61 462.784 389.56V389.58Z" fill="#407BFF"/>
<g opacity="0.3">
<path d="M470.427 387.99C470.638 388.69 471.1 389.39 471.863 389.56C472.335 389.66 472.837 389.53 473.309 389.4C474.735 389.02 476.151 388.63 477.577 388.25V388.21C477.356 386.3 476.864 381.62 475.086 382.05C473.69 382.39 472.857 385.34 469.754 385.29C470.015 386.27 470.276 387.53 470.417 388L470.427 387.99Z" fill="black"/>
</g>
<path d="M491.726 274.71C491.726 274.71 431.142 285.14 433.342 303.17C436.505 329.18 458.788 382.32 458.788 382.32L477.074 375.8C477.074 375.8 465.355 328.52 461.339 309.54C476.904 309.54 509.048 311.21 514.23 297.24C516.75 290.12 517.262 282.45 515.706 275.07L491.736 274.71H491.726Z" fill="#407BFF"/>
<path d="M481.955 198.92C487.327 202.83 488 213.81 471.381 237.44L458.186 223.55C461.6 217.54 464.572 214.6 469.643 207.44C476.552 197.41 481.945 198.91 481.945 198.91L481.955 198.92Z" fill="#263238"/>
<path opacity="0.3" d="M469.302 275.39C469.302 275.39 479.725 288.68 496.405 290.77C513.085 292.86 516.258 288.76 516.258 288.76C516.258 288.76 516.338 282.29 516.589 282.62C516.85 282.95 471.019 273.49 471.019 273.49L469.302 275.4V275.39Z" fill="black"/>
<path d="M481.793 198.71C486.071 198.4 503.193 196.5 520.626 200.02L518.939 261.51C518.939 261.51 519.802 284.13 518.939 286.18C500.632 293.63 477.777 282.78 466.198 275.34C466.319 275.64 469.392 267.5 469.392 267.5C471.531 247.9 474.935 217.34 478.168 199.7C478.259 199.26 481.372 198.75 481.803 198.72L481.793 198.71Z" fill="#263238"/>
<path opacity="0.2" d="M518.708 237.37L517.744 237.5L514.279 220.59L515.886 239.57L518.929 240.06L518.708 237.37Z" fill="black"/>
<path opacity="0.2" d="M473.187 234.83L475.929 213.68L469.713 235.69L471.38 237.45L473.187 234.83Z" fill="black"/>
<path d="M470.296 227.74C470.276 231.96 473.228 235.28 477.004 235.29L477.044 235.93C477.014 236.73 477.627 237.4 478.43 237.46L491.485 237.51C492.308 237.51 492.981 236.84 492.981 236.02L493.051 219.16C492.981 218.58 492.469 218.16 491.886 218.2L478.269 218.16C477.687 218.1 477.165 218.5 477.064 219.07V220.25C473.289 220.23 470.326 223.53 470.306 227.75L470.296 227.74ZM472.716 227.74C472.736 224.92 474.704 222.46 477.044 222.46L477.004 233.05C474.654 233.04 472.706 230.56 472.726 227.73L472.716 227.74Z" fill="#407BFF"/>
<path d="M518.337 231.68L518.93 243.03L497.299 230.71L491.324 237.78C491.324 237.78 518.016 261.85 526.421 262.12C538.692 262.51 532.536 229.31 532.536 229.31L518.337 231.68Z" fill="#E4897B"/>
<path d="M520.627 200.02C520.627 200.02 527.495 201.28 529.142 209.85C530.669 217.74 534.937 235.28 534.937 235.28L517.745 237.5L514.28 216.98L520.617 200.02H520.627Z" fill="#263238"/>
<path d="M492.589 224.43C492.589 224.43 483.682 220.43 483.22 221.03C482.758 221.63 481.865 223.82 482.487 225.35C482.487 225.35 481.172 227.18 482.467 228.8L483.421 229.71C483.421 229.71 481.142 230.43 482.879 233.08C484.616 235.74 489.135 237.65 491.686 238.3C494.236 238.95 498.394 236.83 498.313 236.38C498.233 235.93 496.877 226.1 496.184 223.63C495.491 221.16 493.332 219.66 493.051 219.66L492.599 224.41L492.589 224.43Z" fill="#E4897B"/>
<path d="M392.379 402.38H341.828V277.58H343.837V400.4H390.371V277.58H392.379V402.38Z" fill="#263238"/>
<path d="M579.24 271.63H323.521V277.58H579.24V271.63Z" fill="#407BFF"/>
<path opacity="0.2" d="M579.24 271.63H323.521V277.58H579.24V271.63Z" fill="black"/>
<path opacity="0.2" d="M579.24 271.63H502.961V277.58H579.24V271.63Z" fill="black"/>
<path d="M575.535 403.68H524.983V277.58H526.992V401.68H573.526V277.58H575.535V403.68Z" fill="#263238"/>
<path d="M388.683 271.9H423.659C424.262 271.9 424.744 271.5 424.744 271.02C424.744 270.93 424.724 270.84 424.694 270.75L409.139 235.23C408.747 234.22 407.572 233.52 406.246 233.52H371.25C370.658 233.52 370.176 233.9 370.176 234.38C370.176 234.48 370.196 234.58 370.236 234.67L385.791 270.19C386.193 271.2 387.358 271.89 388.683 271.9Z" fill="#263238"/>
<path opacity="0.7" d="M371.241 233.52H406.237C407.562 233.52 408.737 234.22 409.129 235.23L424.684 270.75C424.724 270.84 424.734 270.93 424.734 271.02C424.734 271.5 424.252 271.9 423.649 271.9H388.673C387.348 271.89 386.183 271.2 385.781 270.19L370.226 234.67C370.186 234.58 370.166 234.48 370.166 234.38C370.166 233.91 370.648 233.52 371.241 233.52Z" fill="white"/>
<path d="M392.921 253.5C393.674 255.2 395.211 256.38 396.355 256.14C397.5 255.9 397.801 254.35 397.068 252.64C396.335 250.93 394.789 249.79 393.644 250.03C392.499 250.27 392.158 251.76 392.931 253.51L392.921 253.5Z" fill="white"/>
<path opacity="0.3" d="M406.026 233.52H406.237C407.562 233.52 408.737 234.22 409.129 235.23L424.684 270.75C424.724 270.84 424.734 270.93 424.734 271.02C424.734 271.5 424.252 271.9 423.649 271.9H422.525L406.016 233.52H406.026Z" fill="black"/>
<path d="M457.902 271.9H421.49V269.46H455.442C456.798 269.46 457.892 270.55 457.892 271.9H457.902Z" fill="#263238"/>
<path opacity="0.7" d="M457.902 271.9H421.49V269.46H455.442C456.798 269.46 457.892 270.55 457.892 271.9H457.902Z" fill="white"/>
<path d="M104.196 163.87C104.196 163.87 117.732 195.81 119.47 195.97C121.197 196.13 143.339 187.54 143.339 187.54L146.784 191.41C146.784 191.41 135.195 206.85 116.839 211.75C113.545 212.63 109.378 208.91 105.411 203.83C104.638 202.84 103.875 201.8 103.111 200.72C99.0242 194.69 95.369 188.39 92.1455 181.86L104.196 163.86V163.87Z" fill="#407BFF"/>
<path opacity="0.6" d="M104.196 163.87C104.196 163.87 117.732 195.81 119.47 195.97C121.197 196.13 143.339 187.54 143.339 187.54L146.784 191.41C146.784 191.41 135.195 206.85 116.839 211.75C113.545 212.63 109.378 208.91 105.411 203.83C104.638 202.84 103.875 201.8 103.111 200.72C99.0242 194.69 95.369 188.39 92.1455 181.86L104.196 163.86V163.87Z" fill="white"/>
<path opacity="0.2" d="M106.827 172.21C107.68 175.98 109.689 181.63 111.265 185.64C111.777 186.94 111.998 188.34 111.767 189.72C111.084 193.68 107.65 194.95 106.505 198.1C105.863 199.95 105.491 201.88 105.411 203.83C104.638 202.84 103.874 201.8 103.111 200.72L101.414 194.06L106.827 172.21Z" fill="black"/>
<path d="M68.7575 397.08L77.012 396.71L80.0748 375.31L67.4922 375.74L68.7575 397.08Z" fill="#B97964"/>
<path d="M78.0163 392.96H75.074C74.4112 392.96 73.7986 393.29 73.397 393.83C71.6999 396.13 70.4245 395.26 68.5869 393.1C67.412 392.96 67.1007 394.3 67.0002 394.66L64.801 402.62C64.6102 403.28 64.9918 403.98 65.6647 404.17C65.7852 404.2 65.9057 404.22 66.0262 404.22H89.3034C93.0089 404.22 93.7721 400.5 92.2457 400.16C85.3871 398.65 80.5268 396.64 78.4079 394.65C78.0163 394.3 78.4179 394.04 77.9962 392.96H78.0163Z" fill="#263238"/>
<path d="M83.7703 395.62C84.0816 395.4 84.2624 395.04 84.2724 394.66C84.3025 394.46 84.2021 394.26 84.0314 394.14C83.1075 393.49 79.4322 395.2 79.0205 395.4C78.9703 395.42 78.9401 395.45 78.92 395.5C78.8899 395.58 78.9301 395.68 79.0205 395.71C79.9242 395.92 80.8481 396.04 81.772 396.06C82.4649 396.13 83.1678 395.97 83.7703 395.61V395.62ZM83.8004 394.43C83.8707 394.48 83.9109 394.56 83.9009 394.65C83.8808 394.92 83.7502 395.18 83.5394 395.35C82.7059 395.97 80.6874 395.7 79.6029 395.5C81.1293 394.83 83.2983 394.08 83.8004 394.43Z" fill="#407BFF"/>
<path d="M79.1513 395.75C80.2559 395.29 82.5656 393.49 82.4451 392.53C82.425 392.33 82.2844 392.09 81.7823 392.02C79.7639 391.79 78.9003 395.39 78.9003 395.54C78.8802 395.6 78.9003 395.67 78.9505 395.71C78.9907 395.72 79.0308 395.72 79.0609 395.71L79.1513 395.74V395.75ZM81.712 392.32C82.0836 392.36 82.0836 392.49 82.0836 392.54C82.184 393.12 80.507 394.62 79.312 395.25C79.563 394.41 80.2961 392.31 81.5714 392.31H81.702L81.712 392.32Z" fill="#407BFF"/>
<path d="M76.9416 397.46C76.9416 397.46 76.8512 397.45 76.811 397.42C76.6905 397.35 76.6604 397.19 76.7307 397.08C77.3131 396.15 78.3173 395.51 79.4019 395.37C79.5425 395.35 79.663 395.45 79.683 395.58C79.7031 395.72 79.6027 395.84 79.4722 395.86C78.5282 395.99 77.6646 396.54 77.1525 397.34C77.1023 397.42 77.0219 397.46 76.9416 397.46Z" fill="#407BFF"/>
<path d="M78.7697 398.83C78.7697 398.83 78.6793 398.82 78.6392 398.79C78.5187 398.72 78.4885 398.56 78.5588 398.45C79.1413 397.52 80.1455 396.88 81.23 396.73C81.3605 396.72 81.4911 396.81 81.5112 396.94C81.5312 397.07 81.4308 397.2 81.3003 397.22C80.3563 397.35 79.4927 397.9 78.9806 398.71C78.9304 398.79 78.85 398.83 78.7697 398.83Z" fill="#407BFF"/>
<path d="M81.0392 399.98C81.0392 399.98 80.9489 399.97 80.9087 399.94C80.7882 399.87 80.7581 399.71 80.8284 399.6C81.4108 398.67 82.415 398.03 83.4995 397.88C83.6301 397.87 83.7606 397.96 83.7807 398.09C83.8008 398.23 83.7004 398.35 83.5698 398.37C82.6259 398.5 81.7623 399.05 81.2501 399.86C81.1999 399.94 81.1196 399.98 81.0392 399.98Z" fill="#407BFF"/>
<path opacity="0.3" d="M78.4081 386.98L78.0165 389.73L68.3059 389.56L68.1553 386.98H78.4081Z" fill="black"/>
<path d="M103.171 394.96L112.139 393.83L114.117 373.66L101.815 373.32L103.171 394.96Z" fill="#B97964"/>
<path d="M112.6 392.15H109.658C108.995 392.15 108.383 392.48 107.981 393.02C106.284 395.32 105.009 394.45 103.171 392.29C101.996 392.15 101.685 393.49 101.584 393.85L99.385 401.81C99.1942 402.47 99.5758 403.17 100.249 403.36C100.369 403.39 100.49 403.41 100.61 403.41H123.887C127.593 403.41 128.356 399.69 126.83 399.35C119.971 397.84 115.111 395.83 112.992 393.84C112.6 393.49 113.002 393.23 112.58 392.15H112.6Z" fill="#263238"/>
<path d="M118.967 394.41C119.278 394.19 119.459 393.83 119.469 393.45C119.499 393.25 119.398 393.05 119.228 392.93C118.304 392.28 114.628 393.99 114.217 394.19C114.167 394.21 114.136 394.24 114.116 394.29C114.086 394.37 114.126 394.47 114.217 394.5C115.121 394.71 116.044 394.83 116.968 394.85C117.661 394.92 118.364 394.76 118.967 394.4V394.41ZM118.997 393.22C119.067 393.27 119.107 393.35 119.097 393.44C119.077 393.71 118.947 393.97 118.736 394.14C117.902 394.76 115.884 394.49 114.799 394.29C116.326 393.62 118.495 392.87 118.997 393.22Z" fill="#407BFF"/>
<path d="M114.348 394.54C115.452 394.08 117.762 392.28 117.641 391.32C117.621 391.12 117.481 390.88 116.979 390.81C114.96 390.58 114.097 394.18 114.097 394.33C114.076 394.39 114.097 394.46 114.147 394.5C114.187 394.51 114.227 394.51 114.257 394.5L114.348 394.53V394.54ZM116.908 391.11C117.28 391.15 117.28 391.28 117.28 391.33C117.39 391.91 115.703 393.41 114.508 394.04C114.759 393.2 115.492 391.1 116.768 391.1H116.898L116.908 391.11Z" fill="#407BFF"/>
<path d="M112.138 396.25C112.138 396.25 112.047 396.24 112.007 396.21C111.887 396.14 111.857 395.98 111.927 395.87C112.509 394.94 113.514 394.3 114.598 394.15C114.729 394.13 114.859 394.23 114.879 394.36C114.899 394.5 114.799 394.62 114.668 394.64C113.725 394.77 112.861 395.32 112.349 396.13C112.299 396.21 112.218 396.25 112.138 396.25Z" fill="#407BFF"/>
<path d="M113.966 397.62C113.966 397.62 113.876 397.61 113.835 397.58C113.715 397.51 113.685 397.35 113.755 397.24C114.338 396.31 115.342 395.67 116.426 395.52C116.557 395.51 116.687 395.6 116.707 395.73C116.728 395.86 116.627 395.99 116.497 396.01C115.553 396.14 114.689 396.69 114.177 397.5C114.127 397.58 114.046 397.62 113.966 397.62Z" fill="#407BFF"/>
<path d="M116.236 398.77C116.236 398.77 116.145 398.76 116.105 398.73C115.984 398.66 115.954 398.5 116.025 398.39C116.607 397.46 117.611 396.82 118.696 396.67C118.826 396.66 118.957 396.75 118.977 396.88C118.997 397.02 118.897 397.14 118.766 397.16C117.822 397.29 116.959 397.84 116.446 398.65C116.396 398.73 116.316 398.77 116.236 398.77Z" fill="#407BFF"/>
<path opacity="0.3" d="M112.932 385.77L112.661 388.53L102.769 388.47L102.599 385.77H112.932Z" fill="black"/>
<path d="M60.1617 192.26C65.3836 184.15 58.1232 176.11 58.2839 166.65C58.4446 157.19 62.5216 147.82 63.0337 138.37C63.2747 133.83 63.9074 129.22 65.8455 125.05C67.7836 120.87 71.3585 116.44 75.8473 114.73L98.512 124.38C102.057 140.83 101.886 151.4 101.434 161.6C100.972 171.84 100.219 181.7 97.8592 193.39C97.558 194.86 97.2166 196.39 96.2425 197.58C94.927 199.19 92.7178 199.86 90.6592 200.45C85.3972 201.94 80.1051 203.45 74.6422 204C69.1794 204.55 68.1853 203.97 63.2647 201.71C61.5977 200.95 59.0672 199.38 58.8362 197.65C58.6454 196.18 59.3483 193.55 60.1617 192.29V192.26Z" fill="#263238"/>
<path d="M84.1611 225.96L107.197 226.05C107.197 226.05 115.241 266.39 114.769 311.62C115.713 338.17 114.96 387 114.96 387H99.9771C99.9771 387 90.4373 347.34 94.2532 315.92C92.8674 310.5 91.0097 301.12 89.9151 296.33C86.8623 283.42 84.5527 270.35 83.0263 257.18C80.3953 232.49 84.1611 225.95 84.1611 225.95V225.96Z" fill="#263238"/>
<path opacity="0.2" d="M86.1996 241.8C86.1996 241.8 94.5043 278.94 89.9152 296.34C86.8624 283.43 84.5527 270.36 83.0264 257.19L86.1996 241.8Z" fill="black"/>
<path d="M64.8005 215.4C62.7921 224.36 54.9092 235.31 53.3225 246.77C50.6012 266.35 62.4205 290.7 65.5135 313.68C60.844 347.66 68.0039 388.86 67.0499 387.97H82.0827C82.5346 384.95 85.6275 338.91 87.1539 311.63C88.4493 287.76 90.528 227.72 90.528 227.72L64.8005 215.4Z" fill="#263238"/>
<path d="M105.44 195.61C104.286 203.52 106.003 220.43 109.337 232.09C110.522 236.24 76.8309 235.68 57.9219 229.46L64.2383 209.98C64.2182 208.37 61.0951 196.84 61.0148 195.15C60.6332 186.93 59.7093 178.74 58.2633 170.64C58.203 170.29 58.1528 169.93 58.1328 169.58C57.8215 165.18 57.711 161.77 61.5571 160.12C62.5813 159.68 66.3872 158.86 67.5622 158.78C69.1789 158.66 71.0668 158.42 72.8141 158.37C74.5614 158.32 74.6116 158.09 76.2284 158.09C80.6468 158.01 86.4912 158.63 90.8796 159.13L91.8537 159.26C93.5005 159.47 95.1675 159.74 96.7843 160.02C96.7843 160.02 100.871 160.6 103.211 162.55C105.541 164.5 110.873 184.63 109.939 189.88C109.126 194.44 105.45 195.63 105.45 195.63L105.44 195.61Z" fill="#407BFF"/>
<path opacity="0.6" d="M105.44 195.61C104.286 203.52 106.003 220.43 109.337 232.09C110.522 236.24 76.8309 235.68 57.9219 229.46L64.2383 209.98C64.2182 208.37 61.0951 196.84 61.0148 195.15C60.6332 186.93 59.7093 178.74 58.2633 170.64C58.203 170.29 58.1528 169.93 58.1328 169.58C57.8215 165.18 57.711 161.77 61.5571 160.12C62.5813 159.68 66.3872 158.86 67.5622 158.78C69.1789 158.66 71.0668 158.42 72.8141 158.37C74.5614 158.32 74.6116 158.09 76.2284 158.09C80.6468 158.01 86.4912 158.63 90.8796 159.13L91.8537 159.26C93.5005 159.47 95.1675 159.74 96.7843 160.02C96.7843 160.02 100.871 160.6 103.211 162.55C105.541 164.5 110.873 184.63 109.939 189.88C109.126 194.44 105.45 195.63 105.45 195.63L105.44 195.61Z" fill="white"/>
<path opacity="0.2" d="M62.1394 216.44L60.0908 222.77C60.0908 222.77 83.0166 218.76 94.5147 208.52C102.699 201.23 101.413 198.16 101.413 198.16L92.1448 199.05L62.1394 216.43V216.44Z" fill="black"/>
<path opacity="0.2" d="M67.5217 181.27L67.9635 203.19C64.4991 205.38 63.4145 206.73 62.8823 203.58L60.9844 194.67L67.5116 181.26L67.5217 181.27Z" fill="black"/>
<path d="M67.5222 181.27C67.5222 181.27 58.8359 202.68 60.4025 203.67C61.969 204.66 86.9635 197.85 86.9635 197.85L91.7836 204.2C90.9401 207.9 46.9262 230.49 43.4115 210.99C41.2726 199.15 54.5781 167.33 54.5781 167.33C57.9322 161.39 62.5816 158.55 64.4193 160.24C69.2193 164.66 67.5222 181.26 67.5222 181.26V181.27Z" fill="#407BFF"/>
<path opacity="0.6" d="M67.5222 181.27C67.5222 181.27 58.8359 202.68 60.4025 203.67C61.969 204.66 86.9635 197.85 86.9635 197.85L91.7836 204.2C90.9401 207.9 46.9262 230.49 43.4115 210.99C41.2726 199.15 54.5781 167.33 54.5781 167.33C57.9322 161.39 62.5816 158.55 64.4193 160.24C69.2193 164.66 67.5222 181.26 67.5222 181.26V181.27Z" fill="white"/>
<path d="M91.7841 204.2C94.7364 204.43 94.8468 200 96.3833 199.83C97.277 199.74 98.1507 199.52 98.9841 199.17C98.9841 199.17 98.0101 201.83 98.9841 201.62C99.9582 201.41 103.081 201.25 103.844 198.71C104.618 196.17 101.836 190.75 101.203 189.99C100.571 189.23 97.2469 189.47 97.2469 189.47C97.2469 189.47 100.822 188.55 102.79 188.28C104.758 188.01 105.13 185.77 102.388 186.27C101.264 186.47 92.3765 186.54 91.4125 187.45C90.4485 188.36 86.8836 197.31 86.8836 197.31C85.558 198.07 88.9221 205.57 91.8041 204.2H91.7841Z" fill="#B97964"/>
<g opacity="0.3">
<path d="M97.2063 189.19C96.2925 189.13 95.3787 189.19 94.4849 189.36C94.3544 189.4 94.2741 189.53 94.3042 189.67C94.3343 189.79 94.4448 189.87 94.5653 189.85C95.4088 189.68 96.2824 189.62 97.1461 189.68C97.4674 189.68 97.5276 189.21 97.2063 189.19Z" fill="black"/>
<path d="M101.785 191.87C102.067 192.02 102.358 191.61 102.077 191.46C100.41 190.58 98.6624 191.07 96.9754 191.63C96.6741 191.73 96.885 192.18 97.1862 192.09C98.6624 191.6 100.299 191.12 101.775 191.87H101.785Z" fill="black"/>
<path d="M103.091 194.059C101.655 193.209 99.8876 193.129 98.3814 193.859C98.2609 193.929 98.2307 194.089 98.301 194.209C98.3613 194.299 98.4717 194.349 98.5822 194.319C99.9278 193.669 101.514 193.729 102.8 194.469C103.071 194.629 103.362 194.229 103.081 194.059H103.091Z" fill="black"/>
<path d="M100.701 197.78C100.831 197.52 100.932 197.25 101.002 196.96C101.072 196.65 100.6 196.48 100.53 196.79C100.319 197.74 99.7267 198.57 98.8832 199.07C98.602 199.23 98.8129 199.68 99.084 199.53H99.0539C99.5861 199.23 100.018 198.82 100.359 198.34C100.389 198.34 100.42 198.36 100.46 198.34C100.982 198.16 101.564 198.31 101.926 198.73C102.137 198.97 102.518 198.65 102.307 198.41C101.896 197.94 101.293 197.73 100.691 197.8L100.701 197.78Z" fill="black"/>
</g>
<path d="M116.557 204.63C115.543 204.24 115.001 202.95 115.342 201.74L124.4 165.41C124.922 163.7 126.298 162.54 127.835 162.52L151.564 163.01C151.825 162.98 152.086 163.01 152.327 163.11C153.341 163.5 153.883 164.79 153.542 166L144.474 202.33C143.952 204.04 142.576 205.2 141.04 205.22L117.311 204.73C117.06 204.75 116.798 204.72 116.557 204.63Z" fill="#263238"/>
<path d="M147.657 182.14C147.185 182.1 145.207 183.08 144.273 182.43C143.339 181.78 144.213 181.25 144.213 181.25C145.92 180.83 147.798 178.7 148.842 179.31C149.886 179.92 151.604 180.69 151.352 181.65C151.071 182.55 150.72 183.42 150.318 184.27C150.589 184.7 150.629 185.24 150.419 185.7C150.208 186.24 149.736 186.63 149.163 186.74C149.485 187.07 149.655 187.52 149.625 187.98C149.545 188.72 147.607 189.68 147.607 189.68C147.607 189.68 147.988 190.83 147.537 191.28C146.773 191.9 145.769 192.13 144.815 191.9C143.68 191.63 142.897 191.24 142.978 190.1C143.058 188.96 145.106 188.96 145.106 188.96C145.106 188.96 141.25 187.8 142.074 187.07C142.887 186.34 145.96 186.43 145.96 186.43C145.96 186.43 140.748 185.4 141.572 184.34C142.395 183.27 147.597 183.57 147.597 183.57C147.597 183.57 148.119 182.18 147.657 182.14Z" fill="#B97964"/>
<path d="M146.824 161.62L133.75 161.39L132.625 164.27L145.921 164.53L146.824 161.62Z" fill="#263238"/>
<path d="M138.258 161.83V159.51H144.514L143.088 162.19L138.258 161.83Z" fill="#263238"/>
<path d="M87.5554 120.07C87.5554 120.07 94.8157 133.1 95.1572 137.16C97.9388 139.52 99.9171 134.74 99.8066 128.33C99.7263 123.09 96.9748 117.43 92.4258 115.39C86.0391 112.53 87.5454 120.07 87.5454 120.07H87.5554Z" fill="#263238"/>
<path d="M86.1894 157.74C84.9743 156.53 85.2655 155.07 85.4965 153.31C85.6572 151.96 86.099 150.55 86.6212 149.18L84.8036 147.22L75.3642 138.4C75.8161 144.5 76.5692 154.99 71.8896 158.48L91.6221 170.97L89.7945 159.01C89.7945 159.01 87.9769 158.74 86.1894 157.74Z" fill="#B97964"/>
<path opacity="0.2" d="M85.436 153.84C82.8753 152.45 80.0334 149.98 80.2543 147.03C80.3547 145.79 80.5857 144.61 80.8468 143.85L86.1791 150.37C85.7975 151.47 85.677 152.19 85.4259 153.83L85.436 153.84Z" fill="black"/>
<path d="M72.4218 128.67C73.6168 137.96 73.9281 141.9 78.939 146.62C86.4705 153.71 97.5568 150.83 99.1434 141.53C100.569 133.15 98.3802 119.37 89.0412 115.79C79.8528 112.26 71.2268 119.39 72.4218 128.68V128.67Z" fill="#B97964"/>
<path d="M85.1046 131.95C85.1046 132.82 85.6168 133.57 86.2293 133.61C86.8419 133.65 87.334 132.98 87.3239 132.1C87.3239 131.23 86.8118 130.48 86.1992 130.44C85.5867 130.4 85.0946 131.07 85.1046 131.95Z" fill="#263238"/>
<path d="M94.0122 131.27C93.972 132.12 94.434 132.87 95.0365 132.94C95.649 133.02 96.1712 132.39 96.2114 131.55C96.2516 130.7 95.7896 129.95 95.1871 129.88C94.5745 129.8 94.0524 130.43 94.0122 131.27Z" fill="#263238"/>
<path d="M82.6148 128.94C82.7353 128.94 82.8558 128.91 82.9462 128.82C84.3219 127.43 85.9688 127.82 85.9889 127.82C86.2299 127.88 86.4709 127.73 86.5111 127.49C86.5512 127.24 86.3906 126.99 86.1395 126.93C86.0491 126.91 83.9905 126.42 82.2734 128.15C82.1027 128.32 82.1127 128.61 82.2935 128.8C82.3838 128.89 82.4943 128.94 82.6048 128.95L82.6148 128.94Z" fill="#263238"/>
<path d="M97.1254 127.04C97.2358 127 97.3262 126.93 97.3764 126.83C97.4869 126.61 97.3764 126.34 97.1455 126.23C94.7856 125.1 92.9479 126.08 92.8676 126.12C92.6467 126.24 92.5864 126.51 92.727 126.72C92.8676 126.93 93.1588 127.01 93.3697 126.89C93.44 126.85 94.876 126.11 96.7538 127.01C96.8743 127.07 97.0049 127.07 97.1254 127.04Z" fill="#263238"/>
<path d="M69.8613 136.37C71.0362 138.24 72.8739 139.38 74.5409 139.73C77.0413 140.26 78.176 136.25 77.2421 133.81C76.3986 131.61 73.9082 130.23 71.5182 130.8C69.1584 131.36 68.5257 134.24 69.8613 136.37Z" fill="#B97964"/>
<path d="M91.3516 130.54C91.3516 130.54 92.9382 133.98 94.6754 136.09C94.9767 136.46 94.816 137.02 94.3742 137.2C93.2294 137.67 91.8637 137.33 91.8637 137.33L91.3516 130.54Z" fill="#C15854"/>
<path d="M86.0186 130.41L88.1876 130.01C88.1876 130.01 86.9424 131.55 86.0186 130.41Z" fill="#263238"/>
<path d="M94.876 129.88L97.0651 129.6C96.0007 130.76 95.1471 130.26 94.876 129.88Z" fill="#263238"/>
<path d="M69.8915 123.58C68.6262 125.41 71.1467 130.71 71.1467 130.71C71.1467 130.71 75.6355 129.38 75.8765 136.11C77.5334 136.38 79.3912 130.1 79.12 123.78C78.7886 120.21 72.1308 120.35 69.8814 123.58H69.8915Z" fill="#263238"/>
<path opacity="0.2" d="M73.9783 137.43C73.9783 137.43 73.9381 137.43 73.918 137.43C72.3917 137.07 71.6988 136.27 71.3774 135.66C71.0661 135.06 70.9958 134.39 71.1866 133.89C71.4979 133.11 72.4519 132.52 73.3858 132.88C73.5164 132.93 73.5766 133.07 73.5264 133.2C73.4762 133.33 73.3356 133.39 73.2051 133.34C72.5624 133.09 71.8695 133.53 71.6486 134.07C71.5381 134.34 71.518 134.85 71.8193 135.42C72.0904 135.94 72.6929 136.62 74.0285 136.93C74.159 136.96 74.2494 137.1 74.2193 137.23C74.1892 137.35 74.0888 137.42 73.9783 137.42V137.43Z" fill="black"/>
<path d="M92.7273 140.38C92.0244 141.41 91.1608 143.41 91.1608 143.41C90.9599 143.37 90.7691 143.32 90.5783 143.27C87.9373 142.59 86.9331 141.41 86.6218 140.3C86.4511 139.69 86.5013 139.1 86.6017 138.64C86.7122 138.1 86.913 137.74 86.913 137.74C88.098 138.93 90.5181 139.75 91.8235 140.14C92.3658 140.31 92.7173 140.38 92.7173 140.38H92.7273Z" fill="#263238"/>
<path d="M91.8331 140.13L91.3511 141.01C88.8607 140.37 87.1938 139.58 86.6113 138.63C86.7218 138.09 86.9226 137.73 86.9226 137.73C88.1076 138.92 90.5277 139.74 91.8331 140.13Z" fill="white"/>
<path d="M90.5786 143.26C87.9376 142.58 86.9334 141.4 86.6221 140.29C87.5158 140.56 88.5602 140.97 89.4137 141.62C90.0665 142.11 90.3978 142.7 90.5886 143.26H90.5786Z" fill="#DC5753"/>
<path d="M96.3523 118.4C94.374 114.3 86.3103 110.49 77.0315 114.45C68.6565 118.01 66.2364 130.16 72.2917 130.62C78.347 131.08 85.4869 125.18 85.4869 125.18L96.3523 118.41V118.4Z" fill="#263238"/>
</g>
<defs>
<clipPath id="clip0_1105_5092">
<rect width="689" height="411" fill="white"/>
</clipPath>
</defs>
</svg>
